<?xml version="1.0" encoding="utf-8"?>
<!-- Generator: Adobe Illustrator 25.0.0, SVG Export Plug-In . SVG Version: 6.00 Build 0)  -->
<svg version="1.1" id="图层_1" xmlns="http://www.w3.org/2000/svg" xmlns:xlink="http://www.w3.org/1999/xlink" x="0px" y="0px"
	 viewBox="0 0 267.481 26.392" style="enable-background:new 0 0 267.481 26.392;" xml:space="preserve">
<g>
	<g>
		<g>
			<path style="fill:#759B6C;" d="M21.555,5.733c0.592-0.933-0.247-1.791-1.207-1.793c0.92-1.901-1.482-4.022-3.213-2.75
				c-0.206-1.334-1.64-1.626-2.347-0.47C11.016,5.181,18.449,10.806,21.555,5.733z"/>
		</g>
		<g>
			<path style="fill:#759B6C;" d="M11.245,13.305l-0.527-0.189c1.221-3.403,4.342-6.568,4.474-6.701l0.398,0.395
				C15.558,6.841,12.424,10.021,11.245,13.305z"/>
		</g>
		<g>
			<path style="fill:#759B6C;" d="M11.169,20.659c0.592,0.933-0.247,1.791-1.207,1.793c0.92,1.901-1.482,4.022-3.213,2.75
				c-0.206,1.333-1.64,1.626-2.347,0.47C0.63,21.212,8.064,15.587,11.169,20.659z"/>
		</g>
		<g>
			<path style="fill:#759B6C;" d="M4.806,19.978c-0.132-0.133-3.253-3.298-4.474-6.701l0.527-0.189
				c1.18,3.287,4.312,6.464,4.345,6.496L4.806,19.978z"/>
		</g>
		<g>
			<rect y="12.902" style="fill:#759B6C;" width="22.29" height="0.561"/>
		</g>
	</g>
	<g>
		<g>
			<path style="fill:#759B6C;" d="M43.845,5.733c0.592-0.933-0.247-1.791-1.207-1.793c0.92-1.901-1.482-4.022-3.213-2.75
				c-0.206-1.334-1.64-1.626-2.347-0.47C33.306,5.181,40.74,10.806,43.845,5.733z"/>
		</g>
		<g>
			<path style="fill:#759B6C;" d="M33.535,13.305l-0.527-0.189c1.221-3.403,4.342-6.568,4.474-6.701l0.398,0.395
				C37.848,6.841,34.714,10.021,33.535,13.305z"/>
		</g>
		<g>
			<path style="fill:#759B6C;" d="M33.459,20.659c0.592,0.933-0.247,1.791-1.207,1.793c0.92,1.901-1.482,4.022-3.213,2.75
				c-0.206,1.333-1.64,1.626-2.347,0.47C22.92,21.212,30.354,15.587,33.459,20.659z"/>
		</g>
		<g>
			<path style="fill:#759B6C;" d="M27.096,19.978c-0.132-0.133-3.253-3.298-4.474-6.701l0.527-0.189
				c1.18,3.287,4.312,6.464,4.345,6.496L27.096,19.978z"/>
		</g>
		<g>
			<rect x="22.29" y="12.902" style="fill:#759B6C;" width="22.29" height="0.561"/>
		</g>
	</g>
	<g>
		<g>
			<path style="fill:#759B6C;" d="M66.135,5.733c0.592-0.933-0.247-1.791-1.207-1.793c0.92-1.901-1.482-4.022-3.213-2.75
				c-0.206-1.334-1.64-1.626-2.347-0.47C55.596,5.181,63.03,10.806,66.135,5.733z"/>
		</g>
		<g>
			<path style="fill:#759B6C;" d="M55.825,13.305l-0.527-0.189c1.221-3.403,4.342-6.568,4.474-6.701l0.398,0.395
				C60.138,6.841,57.004,10.021,55.825,13.305z"/>
		</g>
		<g>
			<path style="fill:#759B6C;" d="M55.749,20.659c0.592,0.933-0.247,1.791-1.207,1.793c0.92,1.901-1.482,4.022-3.213,2.75
				c-0.206,1.333-1.64,1.626-2.347,0.47C45.21,21.212,52.644,15.587,55.749,20.659z"/>
		</g>
		<g>
			<path style="fill:#759B6C;" d="M49.386,19.978c-0.132-0.133-3.253-3.298-4.474-6.701l0.527-0.189
				c1.18,3.287,4.312,6.464,4.345,6.496L49.386,19.978z"/>
		</g>
		<g>
			<rect x="44.58" y="12.902" style="fill:#759B6C;" width="22.29" height="0.561"/>
		</g>
	</g>
	<g>
		<g>
			<path style="fill:#759B6C;" d="M88.425,5.733c0.592-0.933-0.247-1.791-1.207-1.793c0.92-1.901-1.482-4.022-3.213-2.75
				c-0.206-1.334-1.64-1.626-2.347-0.47C77.886,5.181,85.32,10.806,88.425,5.733z"/>
		</g>
		<g>
			<path style="fill:#759B6C;" d="M78.115,13.305l-0.527-0.189c1.221-3.403,4.342-6.568,4.474-6.701l0.398,0.395
				C82.428,6.841,79.294,10.021,78.115,13.305z"/>
		</g>
		<g>
			<path style="fill:#759B6C;" d="M78.039,20.659c0.592,0.933-0.247,1.791-1.207,1.793c0.92,1.901-1.482,4.022-3.213,2.75
				c-0.206,1.334-1.64,1.626-2.347,0.47C67.5,21.212,74.934,15.587,78.039,20.659z"/>
		</g>
		<g>
			<path style="fill:#759B6C;" d="M71.676,19.978c-0.132-0.133-3.253-3.298-4.474-6.701l0.527-0.189
				c1.18,3.287,4.312,6.464,4.345,6.496L71.676,19.978z"/>
		</g>
		<g>
			<rect x="66.87" y="12.902" style="fill:#759B6C;" width="22.29" height="0.561"/>
		</g>
	</g>
	<g>
		<g>
			<path style="fill:#759B6C;" d="M110.715,5.733c0.592-0.933-0.247-1.791-1.207-1.793c0.92-1.901-1.482-4.022-3.213-2.75
				c-0.206-1.334-1.64-1.626-2.347-0.47C100.176,5.181,107.61,10.806,110.715,5.733z"/>
		</g>
		<g>
			<path style="fill:#759B6C;" d="M100.405,13.305l-0.527-0.189c1.221-3.403,4.342-6.568,4.474-6.701l0.398,0.395
				C104.718,6.841,101.584,10.021,100.405,13.305z"/>
		</g>
		<g>
			<path style="fill:#759B6C;" d="M100.329,20.659c0.592,0.933-0.247,1.791-1.207,1.793c0.92,1.901-1.482,4.022-3.213,2.75
				c-0.206,1.333-1.64,1.626-2.347,0.47C89.79,21.212,97.224,15.587,100.329,20.659z"/>
		</g>
		<g>
			<path style="fill:#759B6C;" d="M93.966,19.978c-0.132-0.133-3.253-3.298-4.474-6.701l0.527-0.189
				c1.18,3.287,4.312,6.464,4.345,6.496L93.966,19.978z"/>
		</g>
		<g>
			<rect x="89.16" y="12.902" style="fill:#759B6C;" width="22.291" height="0.561"/>
		</g>
	</g>
	<g>
		<g>
			<path style="fill:#759B6C;" d="M133.005,5.733c0.592-0.933-0.247-1.791-1.207-1.793c0.92-1.901-1.482-4.022-3.213-2.75
				c-0.206-1.334-1.64-1.626-2.347-0.47C122.466,5.181,129.9,10.806,133.005,5.733z"/>
		</g>
		<g>
			<path style="fill:#759B6C;" d="M122.695,13.305l-0.527-0.189c1.222-3.403,4.342-6.568,4.474-6.701l0.398,0.395
				C127.008,6.841,123.875,10.021,122.695,13.305z"/>
		</g>
		<g>
			<path style="fill:#759B6C;" d="M122.619,20.659c0.592,0.933-0.247,1.791-1.207,1.793c0.92,1.901-1.482,4.022-3.213,2.75
				c-0.206,1.333-1.64,1.626-2.347,0.47C112.08,21.212,119.514,15.587,122.619,20.659z"/>
		</g>
		<g>
			<path style="fill:#759B6C;" d="M116.256,19.978c-0.132-0.133-3.253-3.298-4.474-6.701l0.527-0.189
				c1.18,3.287,4.312,6.464,4.345,6.496L116.256,19.978z"/>
		</g>
		<g>
			<rect x="111.451" y="12.902" style="fill:#759B6C;" width="22.29" height="0.561"/>
		</g>
	</g>
	<g>
		<g>
			<path style="fill:#759B6C;" d="M155.295,5.733c0.592-0.933-0.247-1.791-1.207-1.793c0.92-1.901-1.482-4.022-3.213-2.75
				c-0.206-1.334-1.64-1.626-2.347-0.47C144.756,5.181,152.19,10.806,155.295,5.733z"/>
		</g>
		<g>
			<path style="fill:#759B6C;" d="M144.985,13.305l-0.527-0.189c1.222-3.403,4.342-6.568,4.474-6.701l0.398,0.395
				C149.298,6.841,146.165,10.021,144.985,13.305z"/>
		</g>
		<g>
			<path style="fill:#759B6C;" d="M144.909,20.659c0.592,0.933-0.247,1.791-1.207,1.793c0.92,1.901-1.482,4.022-3.213,2.75
				c-0.206,1.333-1.64,1.626-2.347,0.47C134.371,21.212,141.804,15.587,144.909,20.659z"/>
		</g>
		<g>
			<path style="fill:#759B6C;" d="M138.546,19.978c-0.132-0.133-3.253-3.298-4.474-6.701l0.527-0.189
				c1.18,3.287,4.312,6.464,4.345,6.496L138.546,19.978z"/>
		</g>
		<g>
			<rect x="133.741" y="12.902" style="fill:#759B6C;" width="22.29" height="0.561"/>
		</g>
	</g>
	<g>
		<g>
			<path style="fill:#759B6C;" d="M177.585,5.733c0.592-0.933-0.247-1.791-1.207-1.793c0.92-1.901-1.482-4.022-3.213-2.75
				c-0.206-1.334-1.64-1.626-2.347-0.47C167.046,5.181,174.48,10.806,177.585,5.733z"/>
		</g>
		<g>
			<path style="fill:#759B6C;" d="M167.275,13.305l-0.527-0.189c1.222-3.403,4.342-6.568,4.474-6.701l0.398,0.395
				C171.588,6.841,168.455,10.021,167.275,13.305z"/>
		</g>
		<g>
			<path style="fill:#759B6C;" d="M167.199,20.659c0.592,0.933-0.247,1.791-1.207,1.793c0.92,1.901-1.482,4.022-3.213,2.75
				c-0.206,1.333-1.64,1.626-2.347,0.47C156.661,21.212,164.094,15.587,167.199,20.659z"/>
		</g>
		<g>
			<path style="fill:#759B6C;" d="M160.836,19.978c-0.132-0.133-3.253-3.298-4.474-6.701l0.527-0.189
				c1.18,3.287,4.312,6.464,4.345,6.496L160.836,19.978z"/>
		</g>
		<g>
			<rect x="156.031" y="12.902" style="fill:#759B6C;" width="22.29" height="0.561"/>
		</g>
	</g>
	<g>
		<g>
			<path style="fill:#759B6C;" d="M199.875,5.733c0.592-0.933-0.247-1.791-1.207-1.793c0.92-1.901-1.482-4.022-3.213-2.75
				c-0.206-1.334-1.64-1.626-2.347-0.47C189.337,5.181,196.77,10.806,199.875,5.733z"/>
		</g>
		<g>
			<path style="fill:#759B6C;" d="M189.566,13.305l-0.527-0.189c1.221-3.403,4.341-6.568,4.473-6.701l0.398,0.395
				C193.878,6.841,190.745,10.021,189.566,13.305z"/>
		</g>
		<g>
			<path style="fill:#759B6C;" d="M189.489,20.659c0.592,0.933-0.247,1.791-1.207,1.793c0.92,1.901-1.482,4.022-3.213,2.75
				c-0.206,1.333-1.64,1.626-2.347,0.47C178.951,21.212,186.384,15.587,189.489,20.659z"/>
		</g>
		<g>
			<path style="fill:#759B6C;" d="M183.126,19.978c-0.132-0.133-3.252-3.298-4.474-6.701l0.527-0.189
				c1.18,3.284,4.312,6.464,4.345,6.496L183.126,19.978z"/>
		</g>
		<g>
			<rect x="178.321" y="12.902" style="fill:#759B6C;" width="22.29" height="0.561"/>
		</g>
	</g>
	<g>
		<g>
			<path style="fill:#759B6C;" d="M222.165,5.733c0.592-0.933-0.247-1.791-1.207-1.793c0.92-1.901-1.482-4.022-3.213-2.75
				c-0.206-1.334-1.64-1.626-2.347-0.47C211.627,5.181,219.06,10.806,222.165,5.733z"/>
		</g>
		<g>
			<path style="fill:#759B6C;" d="M211.855,13.305l-0.527-0.189c1.222-3.403,4.342-6.568,4.474-6.701l0.398,0.395
				C216.168,6.841,213.035,10.021,211.855,13.305z"/>
		</g>
		<g>
			<path style="fill:#759B6C;" d="M211.779,20.659c0.592,0.933-0.247,1.791-1.207,1.793c0.92,1.901-1.482,4.022-3.213,2.75
				c-0.206,1.334-1.64,1.626-2.347,0.47C201.241,21.212,208.674,15.587,211.779,20.659z"/>
		</g>
		<g>
			<path style="fill:#759B6C;" d="M205.416,19.978c-0.132-0.133-3.252-3.298-4.474-6.701l0.527-0.189
				c1.18,3.284,4.312,6.464,4.345,6.496L205.416,19.978z"/>
		</g>
		<g>
			<rect x="200.611" y="12.902" style="fill:#759B6C;" width="22.29" height="0.561"/>
		</g>
	</g>
	<g>
		<g>
			<path style="fill:#759B6C;" d="M244.455,5.733c0.592-0.933-0.247-1.791-1.207-1.793c0.92-1.901-1.482-4.022-3.213-2.75
				c-0.206-1.334-1.64-1.626-2.347-0.47C233.917,5.181,241.35,10.806,244.455,5.733z"/>
		</g>
		<g>
			<path style="fill:#759B6C;" d="M234.146,13.305l-0.527-0.189c1.221-3.403,4.341-6.568,4.473-6.701l0.398,0.395
				C238.458,6.841,235.325,10.021,234.146,13.305z"/>
		</g>
		<g>
			<path style="fill:#759B6C;" d="M234.07,20.659c0.592,0.933-0.247,1.791-1.207,1.793c0.92,1.901-1.482,4.022-3.213,2.75
				c-0.206,1.334-1.64,1.626-2.347,0.47C223.531,21.212,230.964,15.587,234.07,20.659z"/>
		</g>
		<g>
			<path style="fill:#759B6C;" d="M227.706,19.978c-0.132-0.133-3.252-3.298-4.474-6.701l0.527-0.189
				c1.18,3.284,4.312,6.464,4.345,6.496L227.706,19.978z"/>
		</g>
		<g>
			<rect x="222.901" y="12.902" style="fill:#759B6C;" width="22.29" height="0.561"/>
		</g>
	</g>
	<g>
		<g>
			<path style="fill:#759B6C;" d="M266.745,5.733c0.592-0.933-0.247-1.791-1.207-1.793c0.92-1.901-1.482-4.022-3.213-2.75
				c-0.206-1.334-1.64-1.626-2.347-0.47C256.207,5.181,263.64,10.806,266.745,5.733z"/>
		</g>
		<g>
			<path style="fill:#759B6C;" d="M256.437,13.305l-0.527-0.189c1.221-3.403,4.341-6.568,4.473-6.701l0.398,0.395
				C260.748,6.841,257.615,10.021,256.437,13.305z"/>
		</g>
		<g>
			<path style="fill:#759B6C;" d="M256.36,20.659c0.592,0.933-0.247,1.791-1.207,1.793c0.92,1.901-1.482,4.022-3.213,2.75
				c-0.206,1.334-1.64,1.626-2.347,0.47C245.821,21.212,253.254,15.587,256.36,20.659z"/>
		</g>
		<g>
			<path style="fill:#759B6C;" d="M249.996,19.978c-0.132-0.133-3.252-3.298-4.473-6.701l0.527-0.189
				c1.18,3.287,4.312,6.464,4.344,6.496L249.996,19.978z"/>
		</g>
		<g>
			<rect x="245.191" y="12.902" style="fill:#759B6C;" width="22.29" height="0.561"/>
		</g>
	</g>
</g>
</svg>
